<svg xmlns="http://www.w3.org/2000/svg" viewBox="0 0 512 512"><!--!Font Awesome Free 6.5.2 by @fontawesome - https://fontawesome.com License - https://fontawesome.com/license/free Copyright 2024 Fonticons, Inc.--><path fill="rgb(255, 255, 255)" d="M 471.6 21.7 c -21.9 -21.9 -57.3 -21.9 -79.2 0 L 362.3 51.7 l 97.9 97.9 l 30.1 -30.1 c 21.9 -21.9 21.9 -57.3 0 -79.2 L 471.6 21.7 z m -299.2 220 c -6.1 6.1 -10.8 13.6 -13.5 21.9 l -29.6 88.8 c -2.9 8.6 -0.6 18.1 5.8 24.6 s 15.9 8.7 24.6 5.8 l 88.8 -29.6 c 8.2 -2.7 15.7 -7.4 21.9 -13.5 L 437.7 172.3 L 339.7 74.3 L 172.4 241.7 z M 96 64 C 43 64 0 107 0 160 V 416 c 0 53 43 96 96 96 H 352 c 53 0 96 -43 96 -96 V 320 c 0 -17.7 -14.3 -32 -32 -32 s -32 14.3 -32 32 v 96 c 0 17.7 -14.3 32 -32 32 H 96 c -17.7 0 -32 -14.3 -32 -32 V 160 c 0 -17.7 14.3 -32 32 -32 h 96 c 17.7 0 32 -14.3 32 -32 s -14.3 -32 -32 -32 H 96 z"/></svg>