<svg xmlns="http://www.w3.org/2000/svg" viewBox="0 0 640 512"><!--!Font Awesome Free 6.5.2 by @fontawesome - https://fontawesome.com License - https://fontawesome.com/license/free Copyright 2024 Fonticons, Inc.--><path fill="rgb(255, 255, 255)" d="M 54.2 202.9 C 123.2 136.7 216.8 96 320 96 s 196.8 40.7 265.8 106.9 c 12.8 12.2 33 11.8 45.2 -0.9 s 11.8 -33 -0.9 -45.2 C 549.7 79.5 440.4 32 320 32 S 90.3 79.5 9.8 156.7 C -2.9 169 -3.3 189.2 8.9 202 s 32.5 13.2 45.2 0.9 z M 320 256 c 56.8 0 108.6 21.1 148.2 56 c 13.3 11.7 33.5 10.4 45.2 -2.8 s 10.4 -33.5 -2.8 -45.2 C 459.8 219.2 393 192 320 192 s -139.8 27.2 -190.5 72 c -13.3 11.7 -14.5 31.9 -2.8 45.2 s 31.9 14.5 45.2 2.8 c 39.5 -34.9 91.3 -56 148.2 -56 z m 64 160 a 64 64 0 1 0 -128 0 a 64 64 0 1 0 128 0 z"/></svg>